<?xml version="1.0" encoding="UTF-8"?>
<svg width="16px" height="16px" viewBox="0 0 16 16" version="1.1" xmlns="http://www.w3.org/2000/svg" xmlns:xlink="http://www.w3.org/1999/xlink">
    <!-- Generator: Sketch 58 (84663) - https://sketch.com -->
    <title>删除</title>
    <desc>Created with Sketch.</desc>
    <g id="智慧宿管系统" stroke="none" stroke-width="1" fill="none" fill-rule="evenodd">
        <g id="切图" transform="translate(-817.000000, -70.000000)">
            <g id="编组-7" transform="translate(817.000000, 70.000000)">
                <rect id="Rectangle-path备份-8" fill-opacity="0" fill="#FFFFFF" fill-rule="nonzero" x="0" y="0" width="16" height="16"></rect>
                <path d="M11.0613274,6.4597168 L12.3430176,6.4597168 L12.3430176,14.5845539 L3.63725517,14.5845539 L3.63725517,6.4597168 L4.91894531,6.4597168 L4.91894531,13.2751551 L7.30861782,13.2751551 L7.30861782,6.4597168 L8.59030796,6.4597168 L8.59030796,13.2751551 L11.0613274,13.2751551 L11.0613274,6.4597168 Z M4.56213895,1.3659668 L11.3367868,1.3659668 L11.3367868,3.76843418 L14.4494629,3.76843418 L14.4494629,6.57428885 L13.1677727,6.57428885 L13.1677727,5.07783303 L2.73115303,5.07783303 L2.73115303,6.57428885 L1.44946289,6.57428885 L1.44946289,3.76843418 L4.56213895,3.76843418 L4.56213895,1.3659668 Z M5.84382909,2.67536564 L5.84382909,3.76843418 L10.0550967,3.76843418 L10.0550967,2.67536564 L5.84382909,2.67536564 Z" id="形状" fill="#999999"></path>
            </g>
        </g>
    </g>
</svg>