<?xml version="1.0" encoding="UTF-8"?>
<svg width="48px" height="48px" viewBox="0 0 48 48" version="1.1" xmlns="http://www.w3.org/2000/svg" xmlns:xlink="http://www.w3.org/1999/xlink">
    <!-- Generator: Sketch 58 (84663) - https://sketch.com -->
    <title>上传</title>
    <desc>Created with Sketch.</desc>
    <g id="智慧宿管系统" stroke="none" stroke-width="1" fill="none" fill-rule="evenodd">
        <g id="切图" transform="translate(-544.000000, -213.000000)">
            <g id="编组" transform="translate(544.000000, 213.000000)">
                <circle id="outline" fill="#FFFFFF" fill-rule="nonzero" cx="24" cy="24" r="24"></circle>
                <path d="M25.36,20.52 C25.4054834,20.5541125 25.4458875,20.5945166 25.48,20.64 L30.28,27.04 C30.4788225,27.3050967 30.4250967,27.6811775 30.16,27.88 C30.0561423,27.9578933 29.9298221,28 29.8,28 L27,28 L27,38.4 C27,38.7313708 26.7313708,39 26.4,39 L23.6,39 C23.2686292,39 23,38.7313708 23,38.4 L23,28 L20.2,28 C19.8686292,28 19.6,27.7313708 19.6,27.4 C19.6,27.2701779 19.6421067,27.1438577 19.72,27.04 L24.52,20.64 C24.7188225,20.3749033 25.0949033,20.3211775 25.36,20.52 Z M24.9459459,9 C30.3306055,9 35.0392626,12.5054006 36.806263,17.5891326 L36.9049255,17.8841622 L37.1633031,17.9963368 C40.0635169,19.3166206 42,22.289442 42,25.64 C42,30.2502761 38.3648387,34 33.8648649,34 C33.1700317,34 32.4858223,33.9102446 31.824292,33.7345953 C31.290503,33.5928639 30.9726776,33.0452464 31.114409,32.5114575 C31.2561404,31.9776685 31.8037579,31.6598431 32.3375468,31.8015745 C32.8320494,31.9328746 33.343749,32 33.8648649,32 C37.2461437,32 40,29.1593555 40,25.64 C40,22.9496082 38.3749282,20.5894263 36.0014746,19.6768866 L35.7694787,19.593133 L35.2684968,19.4238545 L35.1263812,18.9145008 C33.8275235,14.2592917 29.691825,11 24.9459459,11 C20.3818947,11 16.3755085,14.0147812 14.9216565,18.4020018 L14.8323432,18.6838852 L14.65578,19.2676718 L14.0559241,19.3779182 C11.1547921,19.9111121 9,22.5387048 9,25.64 C9,29.1593555 11.7538563,32 15.1351351,32 C15.6564252,32 16.1682437,31.9328297 16.662744,31.8014454 C17.1965103,31.6596285 17.7441786,31.9773662 17.8859955,32.5111325 C18.0278124,33.0448987 17.7100746,33.5925671 17.1763084,33.734384 C16.5146686,33.9101757 15.8302337,34 15.1351351,34 C10.6351613,34 7,30.2502761 7,25.64 C7,21.7909646 9.55033915,18.4809903 13.1015778,17.543377 C14.8844333,12.4767179 19.5840062,9 24.9459459,9 Z" id="形状" fill="#4C7EE9"></path>
            </g>
        </g>
    </g>
</svg>