<?xml version="1.0" encoding="UTF-8"?>
<svg width="16px" height="16px" viewBox="0 0 16 16" version="1.1" xmlns="http://www.w3.org/2000/svg" xmlns:xlink="http://www.w3.org/1999/xlink">
    <!-- Generator: Sketch 58 (84663) - https://sketch.com -->
    <title>异常情况</title>
    <desc>Created with Sketch.</desc>
    <g id="智慧宿管系统" stroke="none" stroke-width="1" fill="none" fill-rule="evenodd">
        <g id="切图" transform="translate(-288.000000, -315.000000)">
            <g id="icon_jinggao" transform="translate(288.000000, 315.000000)">
                <rect id="矩形" fill-opacity="0" fill="#FFFFFF" x="0" y="0" width="16" height="16"></rect>
                <path d="M8.44909761,1.11041124 C8.61620187,1.19788941 8.75301818,1.33218176 8.84214045,1.49620332 L14.8875136,12.6221712 C15.1355954,13.0787435 14.9596241,13.6462685 14.4944708,13.8897737 C14.3562257,13.9621442 14.2019568,14 14.045279,14 L1.95453261,14 C1.42735881,14 1,13.580525 1,13.0630764 C1,12.909289 1.03856723,12.7578659 1.11229795,12.6221712 L7.15767114,1.49620332 C7.40575293,1.03963101 7.98394425,0.866906011 8.44909761,1.11041124 Z M8.04410129,10.17241 C7.61454649,10.17241 7.26632351,10.5147804 7.26632351,10.9371158 C7.26632351,11.3594512 7.61454649,11.7018217 8.04410129,11.7018217 C8.4736561,11.7018217 8.82187907,11.3594512 8.82187907,10.9371158 C8.82187907,10.5147804 8.4736561,10.17241 8.04410129,10.17241 Z M8,5.30025707 C7.69931164,5.30025707 7.26632351,5.54012379 7.26632351,5.99737908 L7.26632351,5.99737908 L7.45555556,9.14725414 C7.45555556,9.44288891 7.69931164,9.68254825 8,9.68254825 C8.30068836,9.68254825 8.54444444,9.44288891 8.54444444,9.14725414 L8.54444444,9.14725414 L8.73367649,5.99737908 C8.73367649,5.54012379 8.30068836,5.30025707 8,5.30025707 Z" id="合并形状" fill="#3BC602" fill-rule="nonzero"></path>
            </g>
        </g>
    </g>
</svg>