<?xml version="1.0" encoding="UTF-8"?>
<svg width="24px" height="24px" viewBox="0 0 24 24" version="1.1" xmlns="http://www.w3.org/2000/svg" xmlns:xlink="http://www.w3.org/1999/xlink">
    <!-- Generator: Sketch 58 (84663) - https://sketch.com -->
    <title>logo</title>
    <desc>Created with Sketch.</desc>
    <g id="智慧宿管系统" stroke="none" stroke-width="1" fill="none" fill-rule="evenodd">
        <g id="切图" transform="translate(-686.000000, -72.000000)">
            <g id="编组" transform="translate(686.000000, 72.000000)">
                <rect id="Rectangle-4-Copy" fill="#1B4764" opacity="0" x="0" y="0" width="24" height="24"></rect>
                <path d="M11.3740797,19.4198527 C7.64357314,19.4198527 3.39306307,15.960259 3.39306307,11.3872084 C3.39306307,6.44123126 7.42304622,2.08888495 12.6970638,2.08888495 C17.5284308,2.08888495 21.5413821,5.7938437 21.959372,10.5996629 C20.9695733,8.59274372 18.3580236,6.05996629 13.6336379,6.0482569 C13.7906502,6.424022 13.9476626,6.87004347 14.0567728,7.19347113 C14.1451255,7.45533576 14.0558857,7.74416748 13.8344717,7.90951832 L7.83695556,12.3929744 C7.68508826,12.50652 7.63292824,12.7105473 7.71170052,12.8829948 L8.68890269,15.0208463 C8.79020669,15.2427925 9.06484521,15.3267098 9.27046926,15.1954227 C9.82560099,14.8411248 10.8897365,14.2577841 11.8163754,14.3062184 C12.3511044,14.33425 16.3495077,15.1221503 15.7805376,11.6077353 C16.1451255,12.0196931 16.7593365,13.099796 16.7593365,14.5084716 C16.7593365,16.9039297 15.0254591,19.4198527 11.3740797,19.4198527 M12,0 C5.37248292,0 0,5.37266034 0,12 C0,18.6275171 5.37248292,24 12,24 C18.6273397,24 24,18.6275171 24,12 C24,5.37266034 18.6273397,0 12,0" id="Fill-16" fill="#FFFFFF"></path>
            </g>
        </g>
    </g>
</svg>