<?xml version="1.0" encoding="UTF-8"?>
<svg width="16px" height="16px" viewBox="0 0 16 16" version="1.1" xmlns="http://www.w3.org/2000/svg" xmlns:xlink="http://www.w3.org/1999/xlink">
    <!-- Generator: Sketch 58 (84663) - https://sketch.com -->
    <title>访客管理</title>
    <desc>Created with Sketch.</desc>
    <defs>
        <linearGradient x1="113.517253%" y1="87.5555556%" x2="16.632487%" y2="19.0855035%" id="linearGradient-1">
            <stop stop-color="#FFFFFF" stop-opacity="0" offset="0%"></stop>
            <stop stop-color="#FFFFFF" offset="100%"></stop>
        </linearGradient>
    </defs>
    <g id="智慧宿管系统" stroke="none" stroke-width="1" fill="none" fill-rule="evenodd">
        <g id="切图" transform="translate(-96.000000, -390.000000)">
            <g id="编组-3" transform="translate(96.000000, 390.000000)">
                <rect id="矩形" fill-opacity="0" fill="#D8D8D8" x="0" y="0" width="16" height="16"></rect>
                <path d="M9.60620986,2 C10.5070501,2.0239885 11.1987806,2.42000121 11.6607819,2.92228574 C12.3356756,3.65634969 12.3389068,4.71560275 12.2903305,5.33073738 L12.2616283,5.62483887 L12.2582106,5.64285049 C12.5504945,6.00026456 12.5393506,6.55141694 12.3893456,6.95083113 C12.2821829,7.23457897 12.1107647,7.43769564 11.9067572,7.53199749 C11.7070582,8.37713453 11.2013398,8.9977256 10.9810538,9.23858245 L10.9759192,9.83513643 C10.9758878,11.7451615 15.3362559,11.3879586 15.6005207,13.2598395 L15.6130371,13.4419961 L15.6130371,14 L3.61303711,14 L3.61303711,13.4419961 C3.61303711,11.379714 8.22103193,11.8211283 8.22103193,9.81373953 L8.22471296,9.44196848 C8.22522168,9.37704589 8.22531886,9.30971108 8.2244658,9.23856625 C8.00417978,8.9977094 7.50189525,8.37799299 7.30218006,7.53199749 C7.09818872,7.43771183 6.92932977,7.23456277 6.82134103,6.95084733 C6.67133597,6.55141694 6.66019209,6.00026456 6.9524922,5.64285049 L6.93101443,5.44068279 C6.87572964,4.84927966 6.83454881,3.70222868 7.55163778,2.92228574 C8.01362292,2.41998502 8.70533722,2.0239885 9.60620986,2 Z M5.97056402,1 C6.6581626,1.01877469 7.20947837,1.28616049 7.61303711,1.65052006 C7.24705435,1.83806406 6.92382517,2.09120922 6.64854985,2.39810123 C6.31670469,2.76819158 6.09888677,3.21475538 5.97651724,3.71657589 C5.84438155,4.25844605 5.83086063,4.784205 5.88338456,5.37443842 C5.61965926,5.87355746 5.6146288,6.50841983 5.81607129,7.05842753 C5.93124994,7.36872408 6.10360932,7.628741 6.32596269,7.81356332 C6.50213857,8.40730031 6.79466935,8.91943872 7.13482535,9.34360575 L7.13163047,9.67571728 C7.13163047,10.0464657 6.79867606,10.3005843 5.72342912,10.7043635 L4.84205947,11.0260033 C4.01271312,11.3417929 3.454163,11.6295957 3.11123897,12 L0.613037109,11.9994588 L0.613037109,11.4879804 C0.613037109,9.59764815 4.73230035,10.002258 4.73230035,8.16224219 L4.73537002,7.63502596 C4.5384479,7.41425137 4.08943651,6.84620595 3.91090344,6.07074822 C3.72854776,5.98432395 3.57759827,5.79811314 3.48106299,5.53805345 C3.34696772,5.17192694 3.33700577,4.66672878 3.59830405,4.33911533 L3.57813701,4.14310975 L3.56185562,3.91699901 C3.53164137,3.34258223 3.57666514,2.46684691 4.13390326,1.845387 C4.54688949,1.38496733 5.16523943,1.02198838 5.97056402,1 Z" id="形状" fill="url(#linearGradient-1)"></path>
            </g>
        </g>
    </g>
</svg>