<?xml version="1.0" encoding="UTF-8"?>
<svg width="16px" height="16px" viewBox="0 0 16 16" version="1.1" xmlns="http://www.w3.org/2000/svg" xmlns:xlink="http://www.w3.org/1999/xlink">
    <!-- Generator: Sketch 58 (84663) - https://sketch.com -->
    <title>预警管理</title>
    <desc>Created with Sketch.</desc>
    <defs>
        <linearGradient x1="129.929897%" y1="116.503393%" x2="26.1422294%" y2="11.9898628%" id="linearGradient-1">
            <stop stop-color="#FFFFFF" stop-opacity="0" offset="0%"></stop>
            <stop stop-color="#FFFFFF" offset="100%"></stop>
        </linearGradient>
    </defs>
    <g id="智慧宿管系统" stroke="none" stroke-width="1" fill="none" fill-rule="evenodd">
        <g id="切图" transform="translate(-96.000000, -438.000000)">
            <g id="编组-4" transform="translate(96.000000, 438.000000)">
                <rect id="Rectangle-path" fill="#000000" fill-rule="nonzero" opacity="0" x="0" y="0" width="16" height="16"></rect>
                <path d="M15,13.1 L15,14.9 C15,14.9552285 14.9552285,15 14.9,15 L1.1,15 C1.04477153,15 1,14.9552285 1,14.9 L1,13.1 C1,13.0447715 1.04477153,13 1.1,13 L14.9,13 C14.9552285,13 15,13.0447715 15,13.1 Z M7.98339844,1.24731445 C11.0209646,1.24731445 13.4833984,3.70974833 13.4833984,6.74731445 L13.4833984,11.8984375 L2.48339844,11.8984375 L2.48339844,6.74731445 C2.48339844,3.70974833 4.94583231,1.24731445 7.98339844,1.24731445 Z M9.16077036,5.03135665 L7.58834257,5.03135665 C7.5211044,5.03135665 7.45960524,5.06498707 7.42295951,5.11887007 L7.4004339,5.16287065 L6.43076272,7.82340904 L6.42471705,7.85765203 C6.42471705,7.89907339 6.44990104,7.93461271 6.48579254,7.94979354 L6.52471705,7.95765203 L7.6420988,7.95765203 L7.2221288,9.54041524 C7.21223725,9.57769404 7.22466581,9.61733835 7.25406926,9.64229811 C7.2856474,9.66910389 7.32903907,9.67290377 7.36383953,9.65536565 L7.39502051,9.63077664 L9.76223522,6.8421165 C9.77757683,6.82404356 9.78599885,6.80110807 9.78599885,6.77740161 C9.78599885,6.73598025 9.76081487,6.70044093 9.72492337,6.6852601 L9.68599885,6.67740161 L8.55824599,6.67740161 L9.25158691,5.17321777 C9.25763727,5.16009169 9.26077036,5.14581005 9.26077036,5.13135665 C9.26077036,5.08993529 9.23558638,5.05439597 9.19969488,5.03921514 L9.16077036,5.03135665 Z" id="形状" fill="url(#linearGradient-1)"></path>
            </g>
        </g>
    </g>
</svg>